/* XPM */
static char * coin_xpm[] = {
"64 64 257 2",
"  	c None",
". 	c #47704C",
"+ 	c #000000",
"@ 	c #000000",
"# 	c #000000",
"$ 	c #000000",
"% 	c #000000",
"& 	c #000000",
"* 	c #000000",
"= 	c #000000",
"- 	c #000000",
"; 	c #000000",
"> 	c #000000",
", 	c #000000",
"' 	c #000000",
") 	c #000000",
"! 	c #000000",
"~ 	c #000000",
"{ 	c #000000",
"] 	c #000000",
"^ 	c #000000",
"/ 	c #000000",
"( 	c #000000",
"_ 	c #000000",
": 	c #000000",
"< 	c #000000",
"[ 	c #000000",
"} 	c #000000",
"| 	c #000000",
"1 	c #000000",
"2 	c #000000",
"3 	c #000000",
"4 	c #000000",
"5 	c #000000",
"6 	c #000000",
"7 	c #010100",
"8 	c #000000",
"9 	c #0A0800",
"0 	c #000000",
"a 	c #090700",
"b 	c #000000",
"c 	c #020100",
"d 	c #000000",
"e 	c #000000",
"f 	c #000000",
"g 	c #010100",
"h 	c #010100",
"i 	c #040300",
"j 	c #000000",
"k 	c #020200",
"l 	c #010100",
"m 	c #080700",
"n 	c #050400",
"o 	c #020200",
"p 	c #FFFF00",
"q 	c #020200",
"r 	c #0C0A00",
"s 	c #040300",
"t 	c #443500",
"u 	c #000000",
"v 	c #000000",
"w 	c #000000",
"x 	c #000000",
"y 	c #000000",
"z 	c #000000",
"A 	c #F0C600",
"B 	c #010100",
"C 	c #020100",
"D 	c #685300",
"E 	c #8E7300",
"F 	c #080700",
"G 	c #030200",
"H 	c #020200",
"I 	c #FFFF00",
"J 	c #201900",
"K 	c #000000",
"L 	c #907300",
"M 	c #302500",
"N 	c #000000",
"O 	c #3F3200",
"P 	c #000000",
"Q 	c #000000",
"R 	c #000000",
"S 	c #030200",
"T 	c #070500",
"U 	c #060500",
"V 	c #FFFF00",
"W 	c #110D00",
"X 	c #644F00",
"Y 	c #090800",
"Z 	c #0F0B00",
"` 	c #FFFF00",
" .	c #BB9900",
"..	c #050400",
"+.	c #987C00",
"@.	c #040400",
"#.	c #886D00",
"$.	c #FFFF00",
"%.	c #3D2F00",
"&.	c #A2A600",
"*.	c #534300",
"=.	c #5E4D00",
"-.	c #000000",
";.	c #E2D300",
">.	c #EBC200",
",.	c #FD0000",
"'.	c #06DA00",
").	c #00B900",
"!.	c #FDD500",
"~.	c #000000",
"{.	c #DEB900",
"].	c #FFE300",
"^.	c #FCD400",
"/.	c #DDB800",
"(.	c #FEE200",
"_.	c #FBD300",
":.	c #FFFF00",
"<.	c #FED600",
"[.	c #DFBA00",
"}.	c #080700",
"|.	c #FFE500",
"1.	c #FFDB00",
"2.	c #FCD100",
"3.	c #FCD200",
"4.	c #D6B200",
"5.	c #FFE600",
"6.	c #FFDA00",
"7.	c #F5CD00",
"8.	c #FDD800",
"9.	c #6D5800",
"0.	c #F6CB00",
"a.	c #D7B200",
"b.	c #FFD800",
"c.	c #FFE200",
"d.	c #F3C900",
"e.	c #040300",
"f.	c #F2C800",
"g.	c #FFF800",
"h.	c #0A0800",
"i.	c #F6CF00",
"j.	c #050400",
"k.	c #F1C700",
"l.	c #F3C800",
"m.	c #FEE000",
"n.	c #FFDD00",
"o.	c #FFE800",
"p.	c #060500",
"q.	c #E6C000",
"r.	c #FFEB00",
"s.	c #100D00",
"t.	c #FFFC00",
"u.	c #FFF200",
"v.	c #F4CA00",
"w.	c #FFE400",
"x.	c #F8D000",
"y.	c #D9B400",
"z.	c #FFDC00",
"A.	c #DBB600",
"B.	c #030200",
"C.	c #FFD900",
"D.	c #0A0900",
"E.	c #EBC400",
"F.	c #DAB500",
"G.	c #090700",
"H.	c #FFD700",
"I.	c #010100",
"J.	c #FDD400",
"K.	c #FFFE00",
"L.	c #DAB400",
"M.	c #FFD600",
"N.	c #907500",
"O.	c #D9B500",
"P.	c #FFF400",
"Q.	c #F6CE00",
"R.	c #FAD200",
"S.	c #FDD200",
"T.	c #FEDF00",
"U.	c #FDD100",
"V.	c #FFD500",
"W.	c #F7CF00",
"X.	c #D8B400",
"Y.	c #BB9900",
"Z.	c #312700",
"`.	c #FFF600",
" +	c #453700",
".+	c #443600",
"++	c #917600",
"@+	c #E4BF00",
"#+	c #FCD300",
"$+	c #F4CD00",
"%+	c #FDD700",
"&+	c #DCB700",
"*+	c #DBB700",
"=+	c #E2BC00",
"-+	c #FED500",
";+	c #F8CF00",
">+	c #FFF600",
",+	c #FFE100",
"'+	c #E7C100",
")+	c #F7CC00",
"!+	c #FFFA00",
"~+	c #D3AF00",
"{+	c #F2C900",
"]+	c #FFEA00",
"^+	c #F5CB00",
"/+	c #FDBB00",
"(+	c #FBD400",
"_+	c #FDD900",
":+	c #E1BB00",
"<+	c #FAD100",
"[+	c #FFE000",
"}+	c #EAC100",
"|+	c #FFE700",
"1+	c #D5B000",
"2+	c #FFEE00",
"3+	c #F1C800",
"4+	c #130F00",
"5+	c #4A3B00",
"6+	c #FCCF00",
"7+	c #FFD400",
"8+	c #D1AE00",
"9+	c #1C1500",
"0+	c #735E00",
"a+	c #382D00",
"b+	c #CFAC00",
"c+	c #BE9C00",
"d+	c #FFD400",
"e+	c #AC8C00",
"f+	c #E8BC00",
"g+	c #FCD500",
"h+	c #FBD200",
"i+	c #292000",
"j+	c #EE4100",
"k+	c #FFF000",
"l+	c #947800",
"m+	c #EEC200",
"n+	c #534100",
"o+	c #7A6F00",
"p+	c #F4CC00",
"q+	c #FCD700",
"r+	c #977B00",
"s+	c #7E6600",
"t+	c #FADA00",
"u+	c #F5D100",
"v+	c #F7C900",
"w+	c #F3C700",
"x+	c #DFB900",
"y+	c #917500",
"z+	c #F7D000",
"A+	c #8A7000",
"B+	c #FDDB00",
"C+	c #060200",
"D+	c #FAE400",
"E+	c #F8E000",
"F+	c #A08100",
"G+	c #403400",
"H+	c #DDB500",
"                                                                                                                                ",
"                                              + + + + + + + + + + + + + + + +                                                   ",
"                                              + + + + + + + + + + + + + + + +                                                   ",
"                                              + + + + + + + + + + + + + + + +                                                   ",
"                                              + + + + + + + + + + + + + + + +                                                   ",
"                                              9+9+9+9+9+9+9+9+9+9+9+9+9+9+9+9+                                                  ",
"                              + + + + + + + a+u+;.;.;.;.;.;.;.;.;.;.;.;.;.;.@+k + + + + + + +                                   ",
"                              + + + + + + + a+B+!.!.!.!.!.!.!.!.!.!.!.!.!.!.;.c + + + + + + +                                   ",
"                              + + + + + + + a+B+!.!.!.!.!.!.!.!.!.!.!.!.!.!.;.c + + + + + + +                                   ",
"                              + + + + + + + a+B+!.!.!.!.!.!.!.!.!.!.!.!.!.!.;.c + + + + + + +                                   ",
"                              + + + + + + + a+B+!.!.!.!.!.!.!.!.!.!.!.!.!.!.;.+ + + + + + + +                                   ",
"                      + + + %.t+u+u+u+u+u+u+u+!.!.!.!.!.!.!.!.!.!.!.!.!.!.!.(+u+u+u+u+u+u+u+@+7 + + +                           ",
"                      + + + a+t+!.!.!.!.!.!.!.!.!.!.!.!.!.!.!.!.!.!.!.!.!.!.!.!.!.!.!.!.!.!.@+7 + + +                           ",
"                      + + + a+t+!.!.!.!.!.!.!.!.!.!.!.!.!.!.!.!.!.!.!.!.!.!.!.!.!.!.!.!.!.!.@+7 + + +                           ",
"                      + + + a+t+!.!.!.!.!.!.!.!.!.!.!.!.!.!.!.!.!.!.!.!.!.!.!.!.!.!.!.!.!.!.@+7 + + +                           ",
"                      + + + a+t+!.!.!.!.!.!.!.g+g+g+g+g+g+g+g+g+g+g+g+g+g+g+!.!.!.!.!.!.!.!.@++ + + c                           ",
"              + + + J ;.u+u+u+g+!.!.!.!.!.!._.x+[.[.[.[.[.[.[.[.[.[.[.[.[.[.@+!.!.!.!.!.!.!.(+u+u+u+[.7 + + +                   ",
"              + + + i+B+!.!.!.!.!.!.!.!.!.!.(+/.{.{.{.{.{.{.{.{.{.{.{.{.{.{.=+!.!.!.!.!.!.!.!.!.!.!.'+7 + + +                   ",
"              + + + i+B+!.!.!.!.!.!.!.!.!.!.(+/.{.{.{.{.{.{.{.{.{.{.{.{.{.{.=+!.!.!.!.!.!.!.!.!.!.!.'+7 + + +                   ",
"              + + + i+B+!.!.!.!.!.!.!.!.!.!.(+/.{.{.{.{.{.{.{.{.{.{.{.{.{.{.=+!.!.!.!.!.!.!.!.!.!.!.'+7 + + +                   ",
"              + + + i+B+!.!.!.!.!.!.!.!.!.!.(+A.&+&+&+&+&+&+&+&+&+&+&+&+&+&+=+%+!.!.!.!.!.!.!.!.!.!.'+7 + + +                   ",
"              + + + i+B+!.!.!.!.!.!._.{.[.[.=+(+_._._._._._._._._._._._._._.i.x+[.[.@+!.!.!.!.!.!.!.'+7 + + +                   ",
"              + + + i+B+!.!.!.!.!.!._./.{.{.[.!.!.!.!.!.!.!.!.!.!.!.!.!.!.!.x./.{.{.=+!.!.!.!.!.!.!.'+7 + + +                   ",
"              + + + i+B+!.!.!.!.!.!._./.{.{.[.!.!.!.!.!.!.!.!.!.!.!.!.!.!.!.x./.{.{.=+!.!.!.!.!.!.!.'+7 + + +                   ",
"              + + + i+B+!.!.!.!.!.!._./.{.{.[.!.!.!.!.!.!.!.!.!.!.!.!.!.!.!.x./.{.{.=+!.!.!.!.!.!.!.'+7 + + +                   ",
"              + + + J B+!.!.!.!.!.!.(+&+/./.{.!.!.!.!.!.!.!.!.!.!.!.!.!.!.!.x.&+/./.=+!.^.^.^.!.!.!.'++ + + +                   ",
"      + + + O ;.u+u+u+!.!.!.(+[.:+:+=+_._._._.!.!.!.!.!.!.!.!.!.!.!.!.!.!.!.^._._._.(+(.(.(.T.J.!.!.(+u+u+u+X.+ + + +           ",
"      + + + %.t+!.!.!.!.!.!.(+/.{.{.[.!.!.!.!.!.!.!.!.!.!.!.!.!.!.!.!.!.!.!.!.!.!.!.%+].].].m.J.!.!.!.!.!.!.[.+ + + +           ",
"      + + + %.t+!.!.!.!.!.!.(+/.{.{.[.!.!.!.!.!.!.!.!.!.!.!.!.!.!.!.!.!.!.!.!.!.!.!.%+].].].m.J.!.!.!.!.!.!.[.+ + + +           ",
"      + + + %.t+!.!.!.!.!.!.(+/.{.{.[.!.!.!.!.!.!.!.!.!.!.!.!.!.!.!.!.!.!.!.!.!.!.!.%+].].].m.J.!.!.!.!.!.!.[.+ + + +           ",
"      + + + %.t+!.!.!.!.!.!.(+/.{.{.[.!.!.!.!.!.!.!.!.!.!.!.!.!.!.!.!.!.!.!.!.!.!.!.%+].].].m.J.!.!.!.!.!.!.[.+ + + +           ",
"      + + + %.t+!.!.!.!.!.!.(+/.{.{.[.!.!.!.!.!.!.!.!.!.!.!.!.!.!.!.!.!.!.!.!.!.!.!.%+].].].m.J.!.!.!.!.!.!.[.+ + + +           ",
"      + + + %.t+!.!.!.!.!.!.(+/.{.{.[.!.!.!.!.!.!.!.!.!.!.!.!.!.!.!.!.!.!.!.!.!.!.!.%+].].].m.J.!.!.!.!.!.!.[.+ + + +           ",
"      + + + %.t+!.!.!.!.!.!.(+/.{.{.[.!.!.!.!.!.!.!.!.!.!.!.!.!.!.!.!.!.!.!.!.!.!.!.%+].].].m.J.!.!.!.!.!.!.[.+ + + +           ",
"      + + + %.t+!.!.!.!.!.!.(+/.{.{.[.!.!.!.!.!.!.!.!.!.!.!.!.!.!.!.!.!.!.!.!.!.!.!.%+].].].m.J.!.!.!.!.!.!.[.+ + + +           ",
"      + + + %.t+!.!.!.!.!.!.(+/.{.{.[.!.!.!.!.!.!.!.!.!.!.!.!.!.!.!.!.!.!.!.!.!.!.!.%+].].].m.J.!.!.!.!.!.!.[.+ + + +           ",
"      + + + %.t+!.!.!.!.!.!.(+/.{.{.[.!.!.!.!.!.!.!.!.!.!.!.!.!.!.!.!.!.!.!.!.!.!.!.%+].].].m.J.!.!.!.!.!.!.[.+ + + +           ",
"      + + + %.t+!.!.!.!.!.!.(+/.{.{.[.!.!.!.!.!.!.!.!.!.!.!.!.!.!.!.!.!.!.!.!.!.!.!.%+].].].m.J.!.!.!.!.!.!.[.+ + + +           ",
"      + + + %.t+!.!.!.!.!.!.(+/.{.{.[.!.!.!.!.!.!.!.!.!.!.!.!.!.!.!.!.!.!.!.!.!.!.!.%+].].].m.J.!.!.!.!.!.!.[.+ + + +           ",
"      + + + %.t+!.!.!.!.!.!.(+/.{.{.[.!.!.!.!.!.!.!.!.!.!.!.!.!.!.!.!.!.!.!.!.!.!.!.%+].].].m.J.!.!.!.!.!.!.[.+ + + +           ",
"      + + + %.E+E+E+t+!.!.!._.&+&+&+{.!.!.!.!.!.!.!.!.!.!.!.!.!.!.!.!.!.!.!.!.^.^.^.!.w.w.w.(.J.!.!.q+E+E+E+[.+ + + +           ",
"              0+X X D B+!.!.!.z+z+z+i.=+=+=+@+!.!.!.!.!.!.!.!.!.!.!.!.!.!.!.!.(.(.(.T.!.%+%+!.!.!.!.E.X X X *.                  ",
"              + + + i+B+!.!.!.!.!.!.(+/.{.{.[.!.!.!.!.!.!.!.!.!.!.!.!.!.!.!.!.].].].(.J.!.!.!.!.!.!.'+7 + + +                   ",
"              + + + i+B+!.!.!.!.!.!._./.{.{.[.!.!.!.!.!.!.!.!.!.!.!.!.!.!.!.!.].].].m.^.!.!.!.!.!.!.'+7 + + +                   ",
"              + + + i+B+!.!.!.!.!.!._./.{.{.[.!.!.!.!.!.!.!.!.!.!.!.!.!.!.!.!.].].].m.^.!.!.!.!.!.!.'+7 + + +                   ",
"              + + + i+B+!.!.!.!.!.!._.*+&+&+{.!.^.^.^.^.^.^.^.^.^.^.^.^.^.^.!.w.].].(.J.!.!.!.!.!.!.'+7 + + +                   ",
"              + + + i+B+!.!.!.!.!.!.g+x.x.x.x.(.(.(.(.(.(.(.(.(.(.(.(.(.(.(.T.!.!.!.!.!.!.!.!.!.!.!.'+7 + + +                   ",
"              + + + i+B+!.!.!.!.!.!.!.!.!.!.!.].].].].].].].].].].].].].].].(.J.!.!.!.!.!.!.!.!.!.!.'+7 + + +                   ",
"              + + + i+B+!.!.!.!.!.!.!.!.!.!.!.].].].].].].].].].].].].].].].(.J.!.!.!.!.!.!.!.!.!.!.'+7 + + +                   ",
"              + + + i+B+!.!.!.!.!.!.!.!.!.!.!.].].].].].].].].].].].].].].].(.J.!.!.!.!.!.!.!.!.!.!.'+7 + + +                   ",
"              + + + i+D+t+t+t+!.!.!.!.!.!.!.!.w.].].].].].].].].].].].].].].(.J.!.!.!.!.!.!.g+t+t+t+;.7 + + +                   ",
"                      s+s+s+#.t+!.!.!.!.!.!.!.%+%+%+%+%+%+%+%+%+%+%+%+%+%+%+%+!.!.!.!.!.!.!.E.s+s+s+s+                          ",
"                      + + + a+t+!.!.!.!.!.!.!.!.!.!.!.!.!.!.!.!.!.!.!.!.!.!.!.!.!.!.!.!.!.!.@+7 + + +                           ",
"                      + + + a+t+!.!.!.!.!.!.!.!.!.!.!.!.!.!.!.!.!.!.!.!.!.!.!.!.!.!.!.!.!.!.@+7 + + +                           ",
"                      + + + a+t+!.!.!.!.!.!.!.!.!.!.!.!.!.!.!.!.!.!.!.!.!.!.!.!.!.!.!.!.!.!.@+7 + + +                           ",
"                      + + + %.E+B+B+B+B+B+B+B+!.!.!.!.!.!.!.!.!.!.!.!.!.!.!.!.B+B+B+B+B+B+B+;.7 + + +                           ",
"                              D X X X X X X 0+B+!.!.!.!.!.!.!.!.!.!.!.!.!.!.3+D X X X X X X =.                                  ",
"                              + + + + + + + a+B+!.!.!.!.!.!.!.!.!.!.!.!.!.!.;.c + + + + + + +                                   ",
"                              + + + + + + + a+B+!.!.!.!.!.!.!.!.!.!.!.!.!.!.;.c + + + + + + +                                   ",
"                              + + + + + + + a+B+!.!.!.!.!.!.!.!.!.!.!.!.!.!.;.c + + + + + + +                                   ",
"                              + + + + + + + a+m._+_+_+_+_+_+_+_+_+_+_+_+_+_+;.c + + + + + + +                                   ",
"                                              o+o+o+o+o+o+o+o+o+o+o+o+o+o+o+o+                                                  ",
"                                              + + + + + + + + + + + + + + + +                                                   ",
"                                                                                                                                "};
