/* XPM */
static char * door_xpm[] = {
"64 64 7 1",
" 	c #1A5585",
".	c #0D4066",
"+	c #3E2723",
"@	c #795548",
"#	c #FFB74D",
"$	c #F0F4C3",
"%	c #63A5C3",
"            ............            ............            ....",
"            ............            ............            ....",
"            ............            ............            ....",
"............            ............            ............    ",
"......++++++++++++++++++++++++++++++++++++++++++++++++++++..    ",
"......+@@@@+++++++++++++++++++++++++++++++++++++@@++@@@@@+..    ",
"......@####+++@@@@@@@@@@@@@@@@@@@@@@@@@@@@@@@@@@@#++@###@+..    ",
"      +@@@#+++@@@@@@@@@@@@@@@@@@@@@@@@@@@@@@@@@@@#++@@@#@+  ....",
"      +@@@#++@####################################++@@@#@+  ....",
"      +@@@#++@####################################++@@@#@+  ....",
"      +@@@#+++++++++++++++++++++++++++++++++++++++++@@@#@+  ....",
"......+@@@#+++++++++++++++++++++++++++++++++++++++++@@@#@+..    ",
"......+@@@#++@######@++#######@+@#######++@######@++@@@#@+..    ",
"......+@@@#++@#######++#######@+@#######++@#######++@@@#@+..    ",
"......+@@@#++@@@#####++#@@####@+@#@#####++@@@#####++@@@#@+..    ",
"      +@@@#++@+@##@##++#@@##@#@+@@@#####++@@@##@##++@@@#@+  ....",
"      +@@@#@##@+##@##++#@@##@#@+@@@##@@#++@@@##@##++@@@#@+  ....",
"      +@@@@@$$$@@@+@@++@+@@@+@@++@+@@@@@++@++@@@##++@@@#@+  ....",
"      +@@@@@$$$@@#############################@@##++@@@#@+  ....",
"      +@@@@@$$#@$$$$$$$$$$$$$$$$$$$$$$$$$$$$$$@@##++@@@#@+      ",
"      +@@@@@#$#@@#############################@@##++@@@#@+      ",
"      +@@@@@#$#@@@@@@@@@@@@@@@@@@@@@@@@@@@@@@@@@##++@@@#@+      ",
"      +@@@@@@@@@@#############################@@##++@@@#@+      ",
"      +@@@@@@@#@++++++++++++++++++++++++++++++++##++@@@#@+      ",
"      +@@@@+##@++++++++++++++++++++++++@+++++@+@@#++@@@#@+      ",
"      +@@@#+++++@@@@#++@@@@@@#@+@@@#@@@#++@@@#@@@#++@@@#@+      ",
"      +@@@#++++@@@@@#++@@@@@@#@+@@@#@@@#++@@@#@@@#++@@@#@+      ",
"      +@@@#+++@@@@@@#++@@@@@@#@++@@#@@@#++@@@#@@@#++@@@#@+      ",
"      +@@@#++@@@@@@@#++@@@@@@#@++@@@@@@#++@@@#@@@#++@@@#@+      ",
"      +@@@#++@@@@@@@#++@@@@@@@@++@@@@@@@+++++@@@@#++@@@#@+      ",
"      +@@@#++@@@@@@@#++@@@@@@@@++@@@@@++@@#@@+@@@#++@@@#@+      ",
"      +@@@#++@@@@@@@#++@@@@@@@@++@@@@+@@$$$$#@+@@#++@@@#@+      ",
"      +@@@#++@@@@@@@@++@@@@@@@@++@@@@+@#$$$$#@@+@#++@@@#@+      ",
"      +@@@#++@@@@@@@@++@@@@@@@@++@@@+@##$$$$##@+@#++@@@#@+      ",
"      +@@@#++@@@@@@@@++@@@@@@@@++@@@+@##$$#####+@#++@@@#@+      ",
"      +@@@#++@@@@@@@@++@@@@@@@@++@@@+@##$$@@@@#+@#++@@@#@+      ",
"      +@@@#++@@@@@@@@++@@@@@@@@++@@@+@#@@@@@@#@+@#++@@@#@+      ",
"      +@@@#++@@@@@@@@++@@@@@@@@++@@@@+@##@@@##@+@#++@@@#@+      ",
"      +@@@#++@@@@@@@@++@@@@@@@@++@@@@+@@@###@@+@@#++@@@#@+      ",
"      +@@@#++@@@@@@@@++@@@@@@@@++@@@@@++@@@@@++@@#++@@@#@+      ",
"    %%+@@@#++@@@@@@@@++@@@@@@@@++@@@@@+++++++++@@#++@@@#@+      ",
"    %%+@@@#+++@@@@@@@++@@@@@@@@++@@@@@++++++++@@@#++@@@#@+      ",
"    %%+@@@#+@@+@@@@@@++@@@@@@@@++@@@@@@++++++@@@@#++@@@#@+      ",
"    %%+@@@#@#$#+@@@@@++@@@@@@@@++@@@@@@@++++@@@@@@++@@@#@+      ",
"      +@@@@@$$$@+@@@@++@@@@@@@@++@@@@@@@++@@@@@@@@++@@@#@+  %%%%",
"      +@@@@@$$$@@#############################@@@@++@@@#@+  %%%%",
"      +@@@@@$$#@#$$$$$$$$$$$$$$$$$$$$$$$$$$$$$@@@@++@@@#@+  %%%%",
"      +@@@@@#$#@@@@@@@@@@@@@@@@@@@@@@@@@@@@@@@@@@@++@@@#@+  %%%%",
"    %%+@@@@@##@@@@@@@@@@@@@@@@@@@@@@@@@@@@@@@@@@@@++@@@#@+      ",
"    %%+@@@@@@@@@@@@@@@@@@@@@@@@@@@@@@@@@@@@@@@@@@@++@@@#@+      ",
"    %%+@@@@@#@#@++++++++++++++++++++++++++++++++@@++@@@#@+      ",
"    %%+@@@@+@#@++++++++++++++++++++++++@+++++++@@@++@@@#@+      ",
"%%%%  +@@@#+++++@@@@@++@@@@@@@@++@@@@@@@++@@@@@@@@++@@@#@+%%    ",
"%%%%  +@@@#++++@@@@@@++@@@@@@@@++@@@@@@@++@@@@@@@@++@@@#@+%%    ",
"%%%%  +++@@+++@@@@@@@++@@@@@@@@++@@@@@@@++@@@@@@@@++++@@@+%%    ",
"%%%%  ++++++++++++++++++++++++++++++++++++++++++++++++++++%%    ",
"%%%%%%%%%%%%%%%%%%%%%%%%%%%%%%%%%%%%%%%%%%%%%%%%%%%%%%%%%%%%%%%%",
"%%%%%%%%%%%%%%%%%%%%%%%%%%%%%%%%%%%%%%%%%%%%%%%%%%%%%%%%%%%%%%%%",
"%%%%%%%%%%%%%%%%%%%%%%%%%%%%%%%%%%%%%%%%%%%%%%%%%%%%%%%%%%%%%%%%",
"%%%%%%%%%%%%%%%%%%%%%%%%%%%%%%%%%%%%%%%%%%%%%%%%%%%%%%%%%%%%%%%%",
"%%%%%%%%%%%%%%%%%%%%%%%%%%%%%%%%%%%%%%%%%%%%%%%%%%%%%%%%%%%%%%%%",
"%%%%%%%%%%%%%%%%%%%%%%%%%%%%%%%%%%%%%%%%%%%%%%%%%%%%%%%%%%%%%%%%",
"%%%%%%%%%%%%%%%%%%%%%%%%%%%%%%%%%%%%%%%%%%%%%%%%%%%%%%%%%%%%%%%%",
"%%%%%%%%%%%%%%%%%%%%%%%%%%%%%%%%%%%%%%%%%%%%%%%%%%%%%%%%%%%%%%%%"};
