/* XPM */
static char * floor_xpm[] = {
"64 64 3 1",
" 	c #1A5585",
".	c #0D4066",
"+	c #63A5C3",
"            ............            ............            ....",
"            ............            ............            ....",
"            ............            ............            ....",
"............            ............            ............    ",
"............            ............            ............    ",
"............            ............            ............    ",
"............            ............            ............    ",
"            ............            ............            ....",
"            ............            ............            ....",
"            ............            ............            ....",
"            ............            ............            ....",
"............            ............            ............    ",
"............            ............            ............    ",
"............            ............            ............    ",
"............            ............            ............    ",
"            ............            ............            ....",
"            ............            ............            ....",
"            ............            ............            ....",
"            ............            ............            ....",
"                                                                ",
"                                                                ",
"                                                                ",
"                                                                ",
"                                                                ",
"                                                                ",
"                                                                ",
"                                                                ",
"                                                                ",
"                                                                ",
"                                                                ",
"                                                                ",
"                                                                ",
"                                                                ",
"                                                                ",
"                                                                ",
"            ++++            ++++            ++++                ",
"            ++++            ++++            ++++                ",
"            ++++            ++++            ++++                ",
"            ++++            ++++            ++++                ",
"                                                                ",
"    ++++            ++++            ++++            ++++        ",
"    ++++            ++++            ++++            ++++        ",
"    ++++            ++++            ++++            ++++        ",
"    ++++            ++++            ++++            ++++        ",
"            ++++            ++++            ++++            ++++",
"            ++++            ++++            ++++            ++++",
"            ++++            ++++            ++++            ++++",
"            ++++            ++++            ++++            ++++",
"    ++++            ++++            ++++            ++++        ",
"    ++++            ++++            ++++            ++++        ",
"    ++++            ++++            ++++            ++++        ",
"    ++++            ++++            ++++            ++++        ",
"++++    ++++    ++++    ++++    ++++    ++++    ++++    ++++    ",
"++++    ++++    ++++    ++++    ++++    ++++    ++++    ++++    ",
"++++    ++++    ++++    ++++    ++++    ++++    ++++    ++++    ",
"++++    ++++    ++++    ++++    ++++    ++++    ++++    ++++    ",
"++++++++++++++++++++++++++++++++++++++++++++++++++++++++++++++++",
"++++++++++++++++++++++++++++++++++++++++++++++++++++++++++++++++",
"++++++++++++++++++++++++++++++++++++++++++++++++++++++++++++++++",
"++++++++++++++++++++++++++++++++++++++++++++++++++++++++++++++++",
"++++++++++++++++++++++++++++++++++++++++++++++++++++++++++++++++",
"++++++++++++++++++++++++++++++++++++++++++++++++++++++++++++++++",
"++++++++++++++++++++++++++++++++++++++++++++++++++++++++++++++++",
"++++++++++++++++++++++++++++++++++++++++++++++++++++++++++++++++"};
