/* XPM */
static char * grass_xpm[] = {
"64 64 5 1",
" 	c #AB93FB",
".	c #8353FB",
"+	c #936BFB",
"@	c #D0C4FA",
"#	c #A38CFA",
"                                                                ",
"    .....+++       +++++++++   ++++++++++@+++                   ",
"  ......+++       ++.......+++++...+++++@@++++++                ",
" .......++        ++.........+++...++@+@@++++++++++             ",
" ......++          ++++......++++++++@+@+++++++++++             ",
" ....++++             +++++..++++++++@@@++++++++++              ",
" ...++++                  +++++++++++..@.++++++++               ",
" ++++++    @         @       +++++++++.@..+++++                 ",
"  ++++     @@       @@            ++++....+++        @  @       ",
"            @       @              +++++++++         @@ @  @    ",
"            @@@@ @@@@                                 @@@ +@++++",
"               @@@           @                       ++@+++@@+++",
"           +++  @     @  +++ @                   ++++++@++++@@++",
"        ++++++++@+++++@@+++++@+              @  +++++++@+++++@++",
"        ++++++@+@++++++@@+++@@++             @  ++++...@..+++@++",
"        ++++++@@@+@+++++@@@@@+++             @  ++++...@..+++@++",
"        ++++..++@@@+++++++@@++++            @@  ++++...@...++@++",
"           +....@..++++++++@@+++            @   ++++...@....+@++",
"           ++...@..+++++++++@+++            @   ++++...@.....@++",
"           ++......++++++@++@+++     ++++++ @    ++++........@..",
"           +++.....++++++@@+@+++     +....++@    +++++.......@..",
"            ++++++++++++++@@@++++    +.....+@     +++++......@..",
"       @    ++++++++++++++++@++++    ++....+@+      +++++.......",
"       @             +++++++@@+++     ++..++@+       ++++++.....",
"       @@         @@ +++++++@++++     +++++.@.++      ++++++++++",
"        @@       @@@  +++++.@.+++      ++++.@..+++     +++++++++",
"         @@@@@@@@@ @    +++...++        +++....+++      ++++++++",
"            @@     @      ++++++          ++++++++        ++++++",
"       +++++@@+             +++   @   @    ++++++               ",
"      +++@@+@@+++                 @@@@@    ++++++               ",
"      ++++@+@@+++++                 @         +++               ",
"     ++++.@@@@...+++               +@#@++                       ",
"     ++++...@@...++++           ++++@@@++                       ",
"     ++++...@@...++++         ++++..@..++                       ",
"     +++++.......++++       +++++...@..+++  @       @           ",
"      ++++++.....++++       ++.........+++  @@     @@           ",
"       +++++++++++++       ++..........+++   @@   @@            ",
"         ++++++++++        ++..........+++    @@ @@             ",
"           +++++++        +++........+++++     @ @              ",
"                          ++++.......+++++     @ @              ",
"                           +++++++++++++++     @@@              ",
"                            ++++++++++          @               ",
"    @@@                 @     +++++             @               ",
"      @@   @@@      @   @@            @@        @               ",
"       @@  @@@@ @ @@@    @@           @         @               ",
"        @ @@  @@@@@       @         @@@         @               ",
"        @@@    @@@        @       @@@           @               ",
"     +++@@@++  @@ +++++   @       @             @  ++           ",
"     ++++@+++++@++++      @       @             @  ++           ",
"      +++@+++++@++++++++++@+++++++@+++   +++++++@++++           ",
"     ++++@+++++@++++++++++@+++++++@++++  ++++++.@.+++           ",
"    +++..@.+++.@..++++++++@+++++++@       ++++..@.+++       @   ",
"   ++++..@..+..@..++++++++@+++++++@+       ++++.@..+        @   ",
"   ++++...........++++++++@+++++++@+          ++.+++        @   ",
"   ++++...........++++++++@+++++++@                        @@   ",
"   ++++++++++++++++++++++.@.+++   @                        @    ",
"    ++++++++...+++++++++..@..++   @                        @ +++",
"     ++++++.....+++++++......+++++@                        @++++",
"     +++++........+++++.....++++++@++++                   +@++++",
"    +++++..........++++++++++++++.@.+++++             ++++.@..++",
"    +++++...........+++++++++++++.@.+++++            +++...@...+",
"     ++++...........+++++++++++++...+++++            +++.......+",
"     ++++++....++++++++++++++ +++++++++             ++++......++",
"     +++++++++++++++++++++++                        ++++++++++++"};
