/* XPM */
static char * joint_xpm[] = {
"64 64 10 1",
" 	c #1B5686",
".	c #0E4168",
"+	c #B4B4B4",
"@	c #484848",
"#	c #EC2228",
"$	c #3B251B",
"%	c #663521",
"&	c #65A4C1",
"*	c #EFCC93",
"=	c #CB9961",
"            ............            .........++.      +     ....",
"            ............            ........+++.++   ++     ....",
"            ............            .....+..++.. +++++++    ....",
"............            ............     ++  ++++++++.+++...    ",
"............            ............      +  ++++++++.+++...    ",
"............            ............      +  ++ .+.++.+++++.    ",
"............            ............      +++++ .+..++..+++.    ",
"            ............            .......++..+ + ++ + ++  ....",
"            ............            ........++..@@@@@ ++ +  ....",
"            ............            .........+++@###@@ +++  ....",
"            ............            ...........$@@###@@ ++  ....",
"............            ............           $@@@###@@+...    ",
"............            ............          %$$$@@###@....    ",
"............            ............          %$$$$@@##@....    ",
"............            ............         $%$$$$$@@@@....    ",
"            ............            .........$%$$$$$$$      ....",
"            ............            ......%%$$%$$$$$$       ....",
"            ............            ......%$$$%%$$$$$       ....",
"            ............            ......%$$$$%$$$$        ....",
"                                         $%$$$$%$$$             ",
"                                        $$%$$$$%$$$             ",
"                                      $$$$%$$$$%$$              ",
"                                    $$$$$%%$$$$%%               ",
"                                    $$$$$%$$$$$$                ",
"                                    $$$$$%$$$$$$                ",
"                                   $$$$$$%$$$$                  ",
"                                  $$$$$$$%$$$                   ",
"                                  $$$$$$$%$$$                   ",
"                               $$%$$$$$$$%$                     ",
"                               $$%$$$$$$$%%                     ",
"                               $$%$$$$$$$                       ",
"                             $$$%%$$$$$$                        ",
"                          $$$$$$%$$$$$$$                        ",
"                          $$$$$$%$$$$$                          ",
"                          $$$$$$%$$$                            ",
"            &&&&        $%$$$$$$%$$         &&&&                ",
"            &&&&       $$%$$$$$$%$$         &&&&                ",
"            &&&&      $$%$$$$$$$%$$         &&&&                ",
"            &&&&    $$$$%%$$$$$$%           &&&&                ",
"                   $$$$$$%$$$$$                                 ",
"    &&&&          *$$$$$$%$$$$$     &&&&            &&&&        ",
"    &&&&         **$$$$$$%%$        &&&&            &&&&        ",
"    &&&&        ***$$$$$$$%$        &&&&            &&&&        ",
"    &&&&       ****=$$$$$%%$        &&&&            &&&&        ",
"            &&&*****$$$$$%$ &&&&            &&&&            &&&&",
"            &&*#***#**$$$   &&&&            &&&&            &&&&",
"            &**#***#****    &&&&            &&&&            &&&&",
"            ***#***#***     &&&&            &&&&            &&&&",
"    &&&&   ****#*#*#**&&            &&&&            &&&&        ",
"    &&&&  ******#*#*==&&            &&&&            &&&&        ",
"    &&&& ***##******&&&&            &&&&            &&&&        ",
"    &&&&***#**#**** &&&&            &&&&            &&&&        ",
"&&&&  *****####***&&    &&&&    &&&&    &&&&    &&&&    &&&&    ",
"&&&& *####*#**#**&&&    &&&&    &&&&    &&&&    &&&&    &&&&    ",
"&&&& *#**#*#**#*&&&&    &&&&    &&&&    &&&&    &&&&    &&&&    ",
"&&&& *####***** &&&&    &&&&    &&&&    &&&&    &&&&    &&&&    ",
"&&&&&*#*#*****&&&&&&&&&&&&&&&&&&&&&&&&&&&&&&&&&&&&&&&&&&&&&&&&&&",
"&&&&&*#**#***&&&&&&&&&&&&&&&&&&&&&&&&&&&&&&&&&&&&&&&&&&&&&&&&&&&",
"&&&&&*******&&&&&&&&&&&&&&&&&&&&&&&&&&&&&&&&&&&&&&&&&&&&&&&&&&&&",
"&&&&&&&&&&&&&&&&&&&&&&&&&&&&&&&&&&&&&&&&&&&&&&&&&&&&&&&&&&&&&&&&",
"&&&&&&&&&&&&&&&&&&&&&&&&&&&&&&&&&&&&&&&&&&&&&&&&&&&&&&&&&&&&&&&&",
"&&&&&&&&&&&&&&&&&&&&&&&&&&&&&&&&&&&&&&&&&&&&&&&&&&&&&&&&&&&&&&&&",
"&&&&&&&&&&&&&&&&&&&&&&&&&&&&&&&&&&&&&&&&&&&&&&&&&&&&&&&&&&&&&&&&",
"&&&&&&&&&&&&&&&&&&&&&&&&&&&&&&&&&&&&&&&&&&&&&&&&&&&&&&&&&&&&&&&&"};
