/* XPM */
static char * snoop_xpm[] = {
"64 64 13 1",
" 	c #1A5585",
".	c #0D4066",
"+	c #000000",
"@	c #D8AF7C",
"#	c #8F6041",
"$	c #EEA6B0",
"%	c #F1CA33",
"&	c #FFFFFF",
"*	c #A7E522",
"=	c #EC2228",
"-	c #FFC113",
";	c #0122C6",
">	c #63A5C3",
"            ............            ............            ....",
"            ............            ............            ....",
"            ............            ............            ....",
"............            ............            ............    ",
"............            ......++++++            ............    ",
"............            .....++++++++           ............    ",
"............            .....++++++++           ............    ",
"            ............     ++@####+...........            ....",
"            ............     +######+...........            ....",
"            ............    ++++++++++..........            ....",
"            ............    +##++##++...........            ....",
"............            ....++###++#+           ............    ",
"............            ...+++######+           ............    ",
"............            ...+++#++++#+           ............    ",
"............            ..++++#+$$+#+           ............    ",
"            ............  ++ +#+##++............            ....",
"            ............ +++ +#++++ ............            ....",
"            ............     +##+   ............            ....",
"            ............  ++++%#%++++...........            ....",
"                         ++&&##%#&&&++                          ",
"                         +##&&##%&&##+                          ",
"                         +##&&&%%%&##+                          ",
"                         +##&&&&%&&##+                          ",
"                         +##+&&&&&+##+                          ",
"                         +##+&*&&&+##+                          ",
"                         +##+&*&*&+##+                          ",
"                         +##+&***&+##+                          ",
"                         +##+&&&*&+##+                          ",
"                         +##+&==*&+##+                          ",
"                         +##+&&&=&+##+                          ",
"                         +##+&&=&&+##+                          ",
"                         +##+&=&&&+##+                          ",
"                         +##+&=-=&+;;+                          ",
"                         +##+&-&-&+##+                          ",
"                         +#++&-&-&++#+                          ",
"            >>>>         +##+&-&-&+##+      >>>>                ",
"            >>>>         ++++&&-&&++++      >>>>                ",
"            >>>>            +&&&&&+         >>>>                ",
"            >>>>            +++++++         >>>>                ",
"                            +%%%%%+                             ",
"    >>>>            >>>>    +++++++ >>>>            >>>>        ",
"    >>>>            >>>>    +++++++ >>>>            >>>>        ",
"    >>>>            >>>>    +++++++ >>>>            >>>>        ",
"    >>>>            >>>>    +++ +++ >>>>            >>>>        ",
"            >>>>            +++>+++         >>>>            >>>>",
"            >>>>            +++>+++         >>>>            >>>>",
"            >>>>            +++ +++         >>>>            >>>>",
"            >>>>            +++ +++         >>>>            >>>>",
"    >>>>            >>>>    +++ +++ >>>>            >>>>        ",
"    >>>>            >>>>    +++ +++ >>>>            >>>>        ",
"    >>>>            >>>>  +++++ +++++>>>            >>>>        ",
"    >>>>            >>>> ++&&&+ +&&&++>>            >>>>        ",
">>>>    >>>>    >>>>    +++++++ +++++++ >>>>    >>>>    >>>>    ",
">>>>    >>>>    >>>>  +++;;;;;+ +;;;;;+++>>>    >>>>    >>>>    ",
">>>>    >>>>    >>>>  +;;;;;;;+ +;;;;;;;+>>>    >>>>    >>>>    ",
">>>>    >>>>    >>>>  +++++++++ +++++++++>>>    >>>>    >>>>    ",
">>>>>>>>>>>>>>>>>>>>>>>>>>>>>>>>>>>>>>>>>>>>>>>>>>>>>>>>>>>>>>>>",
">>>>>>>>>>>>>>>>>>>>>>>>>>>>>>>>>>>>>>>>>>>>>>>>>>>>>>>>>>>>>>>>",
">>>>>>>>>>>>>>>>>>>>>>>>>>>>>>>>>>>>>>>>>>>>>>>>>>>>>>>>>>>>>>>>",
">>>>>>>>>>>>>>>>>>>>>>>>>>>>>>>>>>>>>>>>>>>>>>>>>>>>>>>>>>>>>>>>",
">>>>>>>>>>>>>>>>>>>>>>>>>>>>>>>>>>>>>>>>>>>>>>>>>>>>>>>>>>>>>>>>",
">>>>>>>>>>>>>>>>>>>>>>>>>>>>>>>>>>>>>>>>>>>>>>>>>>>>>>>>>>>>>>>>",
">>>>>>>>>>>>>>>>>>>>>>>>>>>>>>>>>>>>>>>>>>>>>>>>>>>>>>>>>>>>>>>>",
">>>>>>>>>>>>>>>>>>>>>>>>>>>>>>>>>>>>>>>>>>>>>>>>>>>>>>>>>>>>>>>>"};
