/* XPM */
static char * snoop2_xpm[] = {
"64 64 12 1",
" 	c #1A5585",
".	c #0D4066",
"+	c #000000",
"@	c #8F6041",
"#	c #D8AF7C",
"$	c #EEA6B0",
"%	c #F1CA33",
"&	c #FFFFFF",
"*	c #B4EA3A",
"=	c #D3412F",
"-	c #0122C6",
";	c #63A5C3",
"            ............            ............            ....",
"            ............            ............            ....",
"            ............            ............            ....",
"............            ............            ............    ",
"............            ...++++++...            ............    ",
"............            ..++++++++..            ............    ",
"............            ..++++++++..            ............    ",
"            ............  +@@@@#++  ............            ....",
"            ............  +@@@@@@+  ............            ....",
"            ............ ++++++++++ ............            ....",
"            ............  ++@@++@@+ ............            ....",
"............            ..+@++@@@++.            ............    ",
"............            ..+@@@@@@+++            ............    ",
"............            ..+@++++@+++            ............    ",
"............            ..+@+$$+@++++           ............    ",
"            ............   ++@@+@+ ++...........            ....",
"            ............    ++++@+ +++..........            ....",
"            ............      +@@+  ............            ....",
"            ............  ++++%@%++++...........            ....",
"                         ++&&&@%@@&&++                          ",
"                         +@@&&%@@&&@@+                          ",
"                         +@@&%%%&&&@@+                          ",
"                         +@@&&%&&&&@@+                          ",
"                         +@@+&&&&&+@@+                          ",
"                         +@@+&*&&&+@@+                          ",
"                         +@@+&*&*&+@@+                          ",
"                         +@@+&***&+@@+                          ",
"                         +@@+&&&*&+@@+                          ",
"                         +@@+&==*&+@@+                          ",
"                         +@@+&&&=&+@@+                          ",
"                         +@@+&&=&&+@@+                          ",
"                         +@@+&=&&&+@@+                          ",
"                         +--+&=%=&+@@+                          ",
"                         +@@+&%&%&+@@+                          ",
"                         +@++&%&%&++@+                          ",
"            ;;;;         +@@+&%&%&+@@+      ;;;;                ",
"            ;;;;         ++++&&%&&++++      ;;;;                ",
"            ;;;;            +&&&&&+         ;;;;                ",
"            ;;;;            +++++++         ;;;;                ",
"                            +%%%%%+                             ",
"    ;;;;            ;;;;    +++++++ ;;;;            ;;;;        ",
"    ;;;;            ;;;;    +++++++ ;;;;            ;;;;        ",
"    ;;;;            ;;;;    +++++++ ;;;;            ;;;;        ",
"    ;;;;            ;;;;    +++ +++ ;;;;            ;;;;        ",
"            ;;;;            +++;+++         ;;;;            ;;;;",
"            ;;;;            +++ +++         ;;;;            ;;;;",
"            ;;;;            +++ +++         ;;;;            ;;;;",
"            ;;;;            +++ +++         ;;;;            ;;;;",
"    ;;;;            ;;;;    +++ +++ ;;;;            ;;;;        ",
"    ;;;;            ;;;;    +++ +++ ;;;;            ;;;;        ",
"    ;;;;            ;;;;  +++++ +++++;;;            ;;;;        ",
"    ;;;;            ;;;; ++&&&+ +&&&++;;            ;;;;        ",
";;;;    ;;;;    ;;;;    +++++++ +++++++ ;;;;    ;;;;    ;;;;    ",
";;;;    ;;;;    ;;;;  +++-----+ +-----+++;;;    ;;;;    ;;;;    ",
";;;;    ;;;;    ;;;;  +-------+ +-------+;;;    ;;;;    ;;;;    ",
";;;;    ;;;;    ;;;;  +++++++++ +++++++++;;;    ;;;;    ;;;;    ",
";;;;;;;;;;;;;;;;;;;;;;;;;;;;;;;;;;;;;;;;;;;;;;;;;;;;;;;;;;;;;;;;",
";;;;;;;;;;;;;;;;;;;;;;;;;;;;;;;;;;;;;;;;;;;;;;;;;;;;;;;;;;;;;;;;",
";;;;;;;;;;;;;;;;;;;;;;;;;;;;;;;;;;;;;;;;;;;;;;;;;;;;;;;;;;;;;;;;",
";;;;;;;;;;;;;;;;;;;;;;;;;;;;;;;;;;;;;;;;;;;;;;;;;;;;;;;;;;;;;;;;",
";;;;;;;;;;;;;;;;;;;;;;;;;;;;;;;;;;;;;;;;;;;;;;;;;;;;;;;;;;;;;;;;",
";;;;;;;;;;;;;;;;;;;;;;;;;;;;;;;;;;;;;;;;;;;;;;;;;;;;;;;;;;;;;;;;",
";;;;;;;;;;;;;;;;;;;;;;;;;;;;;;;;;;;;;;;;;;;;;;;;;;;;;;;;;;;;;;;;",
";;;;;;;;;;;;;;;;;;;;;;;;;;;;;;;;;;;;;;;;;;;;;;;;;;;;;;;;;;;;;;;;"};
