/* XPM */
static char * test_xpm[] = {
"64 64 14 1",
" 	c #E6E6E6",
".	c #FFFFFF",
"+	c #161513",
"@	c #2A2B27",
"#	c #FDE09D",
"$	c #BEBEBD",
"%	c #D2D2D2",
"&	c #B7A37B",
"*	c #4A4A47",
"=	c #849672",
"-	c #E2D1AB",
";	c #9B9A93",
">	c #6D6E5D",
",	c #F7F7F1",
". . .,,,,,,. . . . . ,,,,,, . . . . .,,,,,,. . . . . ,,,,,, . . ",
". . ,,,,,,,, . . . , ,,,,,, , . . . ,,,,,,,, . . . , ,,,,,, , . ",
" . . ,,,,,, . . . . .,,,,,,. . . . . ,,,,,, . . . . .,,,,,,. . .",
" .,,,,,,,,,,,,. . ,,,,,,,,,,,, . .,,,,,,,,,,,,. . ,,,,,,,,,,,, .",
". . .,,,,,,. . . . . ,,,,,, . . . . .,,,,,,. . . . . ,,,,,, . . ",
". ,,,,,,,,,,,, . ,,,,,,,,,,,,,, . ,,,,,,,,,,,, . ,,,,,,,,,,,,,, ",
" . . ,,,,,, . . . . .,,,,,,. . . . . ,,,,,, . . . . .,,,,,,. . .",
",,,,,,,,,,,,,,,,,,,,,,,,,,,,,,,,,,,,,,,,,,,,,,,,,,,,,,,,,,,,,,,,",
". . .,,,,,,. . . . . ,,, ,, . . . . .,,,,,,. . . . . ,,,,,, . . ",
",,,,,,,,,,,,,,,,,,,,,,,,$,,,,,,,,,,,,,,,,,,,,,,,,,,,,,,,,,,,,,,,",
" . . ,,,,,, . . . . .,,,* $  .%$;$ . ,,,,,, . . . . .,,,,,,. . .",
",,,,,,,,,,,,,,,,,,,,,=$ @;=  ;++++*%,,,,,,,,,,,,,,,,,,,,,,,,,,,,",
". . .,,,,,,. . . . . ;+++@@$>@@@@@@@ ,,,,,,. . . . . ,,,,,, . . ",
",,,,,,,,,,,,,,,,,,,,,%@@@@@+@@@@@@@@>,,,,,,,,,,,,,,,,,,,,,,,,,,,",
" . . ,,,,,, . . . . . *@@@+@@@@@@@@@@%,,,,, . . . . .,,,,,,. . .",
",,,,,,,,,,,,,,,,,,,,, >@@@+@@@@@@@@@@>,,,,,,,,,,,,,,,,,,,,,,,,,,",
". . .,,,,,,. . . . .%*+@@+@@@@@@@@@@@@ ,,,,. . . . . ,,,,,, . . ",
" ,,,,,,,,,,,,,, , ,, ;+@@@@@@@@@@@@++@$,,,,,,,, , ,,,,,,,,,,,, ,",
" . . ,,,,,, . . . . .,$++@@@@@@@@@+**+=,,,, . . . . .,,,,,,. . .",
". ,,,,,,,,,,,, . .,,,,=++@@@@@@@@@@&&>=,,,,,,, . .,,,,,,,,,,,,. ",
". . .,,,,,,. . . . .  $;+@@@@+++**&###>,,,,. . . . . ,,,,,, . . ",
" . ,,,,,,,,,, . . , ,,, @@@@@*>&=&-###=,,,,,, . . , ,,,,,,,, , .",
" . . ,,,,,, . . . . .,,%@@@@@=&-######& ,,, . . . . .,,,,,,. . .",
". . .,,,,,,. . . . . ,,$@@@@+&########-$,,,. . . . . ,,,,,, . . ",
". . .,,,,,,. . . . . ,,$@@@+>-########-;,,,. . . . . ,,,,,, . . ",
" . . ,,,,,, . . . . .,,%@@@+&#######-*=;,,, . . . . .,,,,,,. . .",
" . ,,,,,,,,,, . . , ,,,%@@@+&#######>$==,,,,, . . , ,,,,,,,, , .",
". . .,,,,,,. . . . . ,,%+@@+&##-####;=;>,,,. . . . . ,,,,,, . . ",
". ,,,,,,,,,,,, . .,,,,, +@@+&=@*>##-$>>>,,,,,, . .,,,,,,,,,,,,. ",
" . . ,,,,,, . . . . .,,,+@@+=;%$;-##;;=>,,, . . . . .,,,,,,. . .",
" ,,,,,,,,,,,,,, , ,,,,,,>@@+=%;;%&##>,;=,,,,,,, , ,,,,,,,,,,,, ,",
". . .,,,,,,. . . . . ,,,;@@+> =@%&##&*>;,,,. . . . . ,,,,,, . . ",
",,,,,,,,,,,,,,,,,,,,,,,,$@++> $=%&#-#-&$,,,,,,,,,,,,,,,,,,,,,,,,",
" . . ,,,,,, . . . . .,,,;=@@=$,,=#####>,,,, . . . . .,,,,,,. . .",
",,,,,,,,,,,,,,,,,,,,,,,,$===&*=*&####>$,,,,,,,,,,,,,,,,,,,,,,,,,",
". . .,,,,,,. . . . . ,,, >&&&&=-###-*$,,,,,. . . . . ,,,,,, . . ",
",,,,,,,,,,,,,,,,,,,,,,,,,>&*=&&&-&=@* ,,,,,,,,,,,,,,,,,,,,,,,,,,",
" . . ,,,,,, . . . . .,,,,%@=>@**@+=**$,,,,, . . . . .,,,,,,. . .",
",,,,,,,,,,,,,,,,,,,,,,,,,,  ,%>@****>>,,,,,,,,,,,,,,,,,,,,,,,,,,",
". . .,,,,,,. . . . . ,,,,,, .%>>>>**>* ,,,,. . . . . ,,,,,, . . ",
",,,,,,,,,,,,,,,,,,,,,,,,,,,,,$@>;>>$>*=$ ,,,,,,,,,,,,,,,,,,,,,,,",
" . . ,,,,,, . . . . .,,,,,,. >=@$>>-*>+@*,, . . . . .,,,,,,. . .",
". ,,,,,,,,,,,, . ,,,,,,,,,,,%>&>$>*-=>**@ ,,,, . ,,,,,,,,,,,,,, ",
". . .,,,,,,. . . . . ,,,,,, >&>=;=*--*+@@ ,. . . . . ,,,,,, . . ",
" .,,,,,,,,,,,,. . ,,,,,,,,, >&@>;>*--&+@*,,,,,. . ,,,,,,,,,,,, .",
" . . ,,,,,, . . . . .,,,,,,%=#>**>*-$**; ,, . . . . .,,,,,,. . .",
". . ,,,,,,,, . . . , ,,,,,,%>&;@>*>;*%,,,,,, . . . , ,,,,,, , . ",
". . .,,,,,,. . . . . ,,,,,, $@ >@**=,,,,,,,. . . . . ,,,,,, . . ",
" . . ,,,,,, . . . . .,,,,,,. , =++=. ,,,,,, . . . . .,,,,,,. . .",
" . , ,,,,,, , . . . ,,,,,,,, . >*=;, ,,,,,, , . . . ,,,,,,,, . .",
". . .,,,,,,. . . . . ,,,,,,  % =@@% .,,,,,,. . . . . ,,,,,, . . ",
". ,,,,,,,,,,,, . .,,,,,, %%$%$%=@@%$  ,,,,,,,, . .,,,,,,,,,,,,. ",
" . . ,,,,,, . . . . .,,%$%$%$%$;@=$%$%%,,,, . . . . .,,,,,,. . .",
" ,,,,,,,,,,,,,, . ,,,, $$%$%$%$%;$$%$%$,,,,,,,, . ,,,,,,,,,,,, .",
". . .,,,,,,. . . . . , %%$%$%$%$%$%$%$% ,,,. . . . . ,,,,,, . . ",
",,,,,,,,,,,,,,,,,,,,,,, %$%$%$%$%$%$%% ,,,,,,,,,,,,,,,,,,,,,,,,,",
" . . ,,,,,, . . . . .,,,, %%$%$%$%%  ,,,,,, . . . . .,,,,,,. . .",
",,,,,,,,,,,,,,,,,,,,,,,,,,,,,, , ,,,,,,,,,,,,,,,,,,,,,,,,,,,,,,,",
". . .,,,,,,. . . . . ,,,,,, . . . . .,,,,,,. . . . . ,,,,,, . . ",
",,,,,,,,,,,,,,,,,,,,,,,,,,,,,,,,,,,,,,,,,,,,,,,,,,,,,,,,,,,,,,,,",
" . . ,,,,,, . . . . .,,,,,,. . . . . ,,,,,, . . . . .,,,,,,. . .",
",,,,,,,,,,,,,,,,,,,,,,,,,,,,,,,,,,,,,,,,,,,,,,,,,,,,,,,,,,,,,,,,",
". . .,,,,,,. . . . . ,,,,,, . . . . .,,,,,,. . . . . ,,,,,, . . ",
",,,,,,,,,,,,,,,,,,,,,,,,,,,,,,,,,,,,,,,,,,,,,,,,,,,,,,,,,,,,,,,,"};
